<?xml version="1.0" standalone="no"?>
<!DOCTYPE svg PUBLIC "-//W3C//DTD SVG 20010904//EN"
 "http://www.w3.org/TR/2001/REC-SVG-20010904/DTD/svg10.dtd">
<svg version="1.0" xmlns="http://www.w3.org/2000/svg"
 width="512.000000pt" height="512.000000pt" viewBox="0 0 512.000000 512.000000"
 preserveAspectRatio="xMidYMid meet">

<g transform="translate(0.000000,512.000000) scale(0.100000,-0.100000)"
fill="#000000" stroke="none">
<path d="M2240 4947 c-49 -16 -133 -102 -148 -153 -7 -23 -12 -85 -12 -138 l0
-96 -135 0 c-128 0 -137 -1 -159 -23 -24 -25 -23 -17 -47 -309 l-12 -148 -280
0 c-190 0 -293 -4 -321 -12 -55 -16 -138 -99 -154 -154 -8 -29 -12 -139 -12
-360 l0 -319 -318 -283 c-176 -155 -338 -300 -362 -322 l-42 -39 4 -143 c3
-136 5 -146 35 -210 42 -90 100 -150 186 -193 38 -19 76 -35 83 -35 12 0 14
-113 14 -685 l0 -685 -96 0 c-128 0 -168 -13 -229 -75 -71 -70 -91 -145 -63
-239 16 -55 99 -138 154 -154 32 -9 542 -12 2236 -12 2475 0 2252 -8 2331 80
90 100 90 220 0 320 -57 63 -106 80 -235 80 l-98 0 0 685 c0 572 2 685 14 685
7 0 45 16 83 35 86 43 144 103 186 193 29 62 32 77 35 194 3 70 2 138 -1 150
-4 14 -149 150 -361 338 l-356 315 0 319 c0 217 -4 331 -12 358 -6 22 -31 62
-55 88 -69 76 -88 80 -418 80 l-282 0 -12 148 c-24 292 -23 284 -47 309 -23
23 -27 23 -239 23 l-215 0 0 96 c0 128 -13 168 -75 229 -87 87 -201 100 -297
33 -28 -19 -28 -19 -55 0 -60 41 -140 52 -213 29z m135 -172 c23 -22 25 -32
25 -120 l0 -95 -80 0 -80 0 0 95 c0 88 2 98 25 120 15 16 36 25 55 25 19 0 40
-9 55 -25z m320 0 c23 -22 25 -32 25 -120 l0 -95 -80 0 -80 0 0 95 c0 88 2 98
25 120 15 16 36 25 55 25 19 0 40 -9 55 -25z m-615 -455 l0 -80 80 0 80 0 0
80 0 80 80 0 80 0 0 -80 0 -80 80 0 80 0 0 80 0 80 85 0 c81 0 85 -1 85 -22 0
-13 14 -183 30 -378 16 -195 30 -365 30 -377 l0 -23 -470 0 -470 0 0 23 c0 12
14 182 30 377 16 195 30 365 30 378 0 21 4 22 85 22 l85 0 0 -80z m1130 58 c0
-13 14 -183 30 -378 16 -195 30 -365 30 -377 0 -23 -1 -23 -160 -23 -159 0
-160 0 -160 23 0 12 -14 182 -30 377 -16 195 -30 365 -30 378 0 22 1 22 160
22 159 0 160 0 160 -22z m-1500 -485 c0 -16 -7 -102 -15 -193 -19 -212 -19
-207 10 -235 l24 -25 831 0 831 0 24 25 c29 28 29 23 10 235 -8 91 -15 177
-15 193 l0 27 270 0 271 0 24 -25 25 -24 0 -296 0 -295 -1440 0 -1440 0 0 295
0 296 25 24 24 25 271 0 270 0 0 -27z m-500 -778 c0 -3 -66 -111 -147 -240
l-146 -235 -191 0 -191 0 30 29 c17 16 137 124 268 240 l238 211 69 0 c39 0
70 -2 70 -5z m375 -27 c-5 -34 -55 -430 -55 -441 0 -4 -94 -7 -210 -7 -115 0
-210 2 -210 5 0 3 66 111 147 240 l146 235 94 0 94 0 -6 -32z m575 -208 l0
-240 -235 0 -236 0 6 33 c5 33 55 429 55 440 0 4 92 7 205 7 l205 0 0 -240z
m640 0 l0 -240 -240 0 -240 0 0 240 0 240 240 0 240 0 0 -240z m570 233 c0
-11 50 -407 55 -440 l6 -33 -236 0 -235 0 0 240 0 240 205 0 c113 0 205 -3
205 -7z m493 -228 c81 -129 147 -237 147 -240 0 -3 -94 -5 -210 -5 -115 0
-210 3 -210 7 0 11 -50 407 -55 441 l-6 32 94 0 94 0 146 -235z m452 -1 c146
-129 265 -237 265 -240 0 -2 -85 -4 -188 -4 l-189 0 -146 235 c-81 129 -147
237 -147 240 0 3 32 5 70 5 l71 0 264 -236z m-3435 -460 c0 -31 -5 -75 -12
-98 -16 -55 -99 -138 -154 -154 -94 -28 -169 -8 -239 63 -57 56 -75 102 -75
189 l0 56 240 0 240 0 0 -56z m640 0 c0 -87 -18 -133 -75 -189 -51 -52 -102
-75 -165 -75 -63 0 -114 23 -165 75 -57 56 -75 102 -75 189 l0 56 240 0 240 0
0 -56z m640 0 c0 -87 -18 -133 -75 -189 -51 -52 -102 -75 -165 -75 -63 0 -114
23 -165 75 -57 56 -75 102 -75 189 l0 56 240 0 240 0 0 -56z m640 0 c0 -31 -5
-75 -12 -98 -16 -55 -99 -138 -154 -154 -94 -28 -169 -8 -239 63 -57 56 -75
102 -75 189 l0 56 240 0 240 0 0 -56z m640 0 c0 -31 -5 -75 -12 -98 -16 -55
-99 -138 -154 -154 -94 -28 -169 -8 -239 63 -57 56 -75 102 -75 189 l0 56 240
0 240 0 0 -56z m640 0 c0 -31 -5 -75 -12 -98 -16 -55 -99 -138 -154 -154 -94
-28 -169 -8 -239 63 -57 56 -75 102 -75 189 l0 56 240 0 240 0 0 -56z m640 0
c0 -31 -5 -75 -12 -98 -16 -55 -99 -138 -154 -154 -94 -28 -169 -8 -239 63
-57 56 -75 102 -75 189 l0 56 240 0 240 0 0 -56z m-3713 -315 c24 -22 74 -55
111 -72 61 -29 76 -32 162 -32 86 0 101 3 162 32 37 17 87 50 112 73 l46 43
46 -43 c25 -23 75 -56 112 -73 61 -29 76 -32 162 -32 86 0 101 3 162 32 37 17
87 50 112 73 l46 43 46 -43 c25 -23 75 -56 112 -73 61 -29 76 -32 162 -32 86
0 101 3 162 32 37 17 87 50 112 73 l46 43 46 -43 c25 -23 75 -56 112 -73 61
-29 76 -32 162 -32 86 0 101 3 162 32 37 17 87 50 112 73 l46 43 46 -43 c25
-23 75 -56 112 -73 61 -29 76 -32 162 -32 86 0 101 3 162 32 37 17 87 50 112
73 l46 43 45 -42 c43 -39 154 -101 183 -101 9 0 12 -144 12 -685 l0 -685 -720
0 -720 0 0 575 0 576 -25 24 -24 25 -351 0 -351 0 -24 -25 -25 -24 0 -576 0
-575 -720 0 -720 0 0 685 c0 572 2 685 14 685 28 0 152 70 185 104 19 20 37
36 39 36 3 0 25 -18 49 -41z m1793 -949 l0 -520 -240 0 -240 0 0 520 0 520
240 0 240 0 0 -520z m1975 -705 c33 -32 33 -78 0 -110 l-24 -25 -2191 0 -2191
0 -24 25 c-16 15 -25 36 -25 55 0 19 9 40 25 55 l24 25 2191 0 2191 0 24 -25z"/>
<path d="M909 1811 l-29 -29 0 -382 0 -382 29 -29 29 -29 507 0 506 0 24 25
25 24 0 391 0 391 -25 24 -24 25 -506 0 -507 0 -29 -29z m931 -411 l0 -280
-400 0 -400 0 0 280 0 280 400 0 400 0 0 -280z"/>
<path d="M3145 1815 l-25 -24 0 -391 0 -391 25 -24 24 -25 511 0 511 0 24 25
25 24 0 391 0 391 -25 24 -24 25 -511 0 -511 0 -24 -25z m935 -415 l0 -280
-400 0 -400 0 0 280 0 280 400 0 400 0 0 -280z"/>
</g>
</svg>
