<?xml version="1.0" standalone="no"?>
<!DOCTYPE svg PUBLIC "-//W3C//DTD SVG 20010904//EN"
 "http://www.w3.org/TR/2001/REC-SVG-20010904/DTD/svg10.dtd">
<svg version="1.0" xmlns="http://www.w3.org/2000/svg"
 width="512.000000pt" height="512.000000pt" viewBox="0 0 512.000000 512.000000"
 preserveAspectRatio="xMidYMid meet">

<g transform="translate(0.000000,512.000000) scale(0.100000,-0.100000)"
fill="#000000" stroke="none">
<path d="M4003 5105 c-147 -27 -275 -79 -391 -162 l-63 -45 -57 34 c-125 76
-223 102 -377 102 -168 0 -300 -45 -434 -148 l-61 -47 -82 20 c-96 25 -157 26
-253 6 -111 -24 -189 -67 -275 -154 -41 -42 -83 -94 -93 -116 l-18 -41 -92 1
c-79 0 -100 -4 -149 -27 -73 -34 -138 -94 -169 -156 -23 -47 -27 -50 -71 -55
-119 -15 -208 -108 -212 -219 -1 -41 3 -53 23 -69 51 -41 112 -11 125 62 12
67 42 79 157 64 41 -6 48 -4 63 16 9 13 19 39 22 59 15 82 67 143 143 169 48
16 72 14 140 -10 82 -28 109 -14 140 70 79 218 334 330 539 236 79 -36 95 -33
165 31 125 113 238 159 392 158 143 0 238 -31 350 -114 27 -20 58 -40 68 -43
26 -9 72 15 141 72 70 59 175 112 282 143 104 29 305 31 404 4 240 -66 433
-227 534 -448 47 -101 65 -176 73 -293 24 -393 -255 -751 -646 -830 -100 -21
-273 -16 -366 9 -193 53 -359 177 -480 360 -50 75 -68 80 -160 47 -60 -21 -87
-25 -195 -25 -108 0 -133 3 -185 23 -79 31 -158 82 -223 143 -60 57 -58 57
-182 12 -65 -23 -86 -26 -157 -21 -106 6 -174 37 -258 117 -79 76 -105 80
-166 26 -47 -43 -95 -66 -137 -66 -33 0 -77 -30 -84 -58 -9 -32 18 -81 47 -88
44 -11 113 2 178 34 56 28 64 30 82 16 127 -94 206 -125 335 -131 77 -5 110
-1 173 16 l77 21 55 -45 c73 -59 201 -119 299 -141 92 -19 260 -15 338 9 l46
14 47 -63 c136 -186 360 -320 609 -365 107 -19 301 -7 410 26 537 158 825 724
636 1248 -91 251 -316 476 -567 567 -159 57 -334 73 -490 45z"/>
<path d="M1089 3749 c-15 -6 -32 -22 -37 -37 -8 -20 -64 -2193 -62 -2414 l0
-28 -324 0 -324 0 -53 -28 c-130 -67 -167 -233 -78 -344 l29 -37 0 -355 0
-356 -95 0 c-88 0 -98 -2 -120 -25 -32 -31 -32 -69 0 -100 l24 -25 2511 0
2511 0 24 25 c32 31 32 69 0 100 -23 24 -29 25 -160 25 l-135 0 0 516 0 515
29 37 c89 111 51 279 -78 345 l-55 27 -268 0 c-206 0 -270 3 -273 13 -2 6 -20
282 -40 612 -39 638 -39 636 -91 655 -35 14 -324 13 -363 -1 -17 -6 -36 -20
-42 -31 -6 -11 -28 -295 -50 -632 -21 -336 -38 -612 -39 -613 0 -2 -40 -3 -90
-3 -77 0 -90 2 -90 16 0 33 -70 1150 -74 1188 -2 21 -14 48 -26 60 -19 20 -31
21 -210 21 -180 0 -190 -1 -211 -21 -20 -21 -23 -49 -60 -630 -21 -335 -38
-615 -39 -621 0 -10 -25 -13 -90 -13 -79 0 -90 2 -90 18 -1 9 -18 288 -39 620
-37 580 -39 604 -60 625 -21 21 -30 22 -211 22 -183 0 -190 -1 -212 -22 -22
-22 -23 -40 -60 -610 -20 -324 -37 -603 -37 -620 l-1 -33 -105 0 -105 0 0 28
c-1 15 -11 489 -24 1053 -17 736 -27 1032 -35 1048 -7 12 -23 26 -37 31 -33
13 -501 11 -535 -1z m435 -161 c2 -13 12 -392 20 -843 9 -451 19 -895 23 -987
l6 -168 -92 0 c-58 0 -105 -5 -127 -15 -114 -48 -173 -165 -140 -279 9 -30 27
-68 41 -84 l25 -30 0 -516 0 -516 -84 0 -83 0 4 133 c3 110 73 3263 73 3311 0
14 22 16 165 16 163 0 165 0 169 -22z m806 -866 c0 -21 60 -986 66 -1054 l6
-78 -161 0 c-116 0 -161 3 -161 12 0 24 60 986 66 1056 l6 72 89 0 c49 0 89
-4 89 -8z m804 -64 c7 -81 66 -1021 66 -1050 0 -17 -12 -18 -160 -18 -88 0
-160 1 -160 3 0 1 16 252 35 557 19 305 35 560 35 567 0 10 24 13 89 13 l89 0
6 -72z m800 30 c5 -43 66 -1034 66 -1075 0 -23 -1 -23 -160 -23 l-161 0 6 58
c3 31 19 282 36 557 16 275 32 506 34 513 3 8 30 12 89 12 l85 0 5 -42z m764
-1268 c29 -27 37 -63 20 -96 -20 -43 -52 -54 -162 -54 -88 0 -102 -2 -123 -22
-28 -26 -30 -67 -4 -99 17 -22 28 -24 120 -27 l101 -4 0 -484 0 -484 -1610 0
-1610 0 0 485 0 485 1370 0 c996 0 1376 3 1394 11 51 23 55 103 7 128 -14 8
-445 11 -1395 11 -1045 0 -1381 3 -1401 12 -33 15 -58 62 -49 91 3 12 16 32
27 45 l20 22 1637 0 c1630 0 1636 0 1658 -20z m-3716 -385 l-3 -85 -145 0
c-141 0 -146 -1 -169 -25 -28 -27 -30 -42 -14 -78 18 -39 50 -47 194 -47 l134
0 -5 -252 c-3 -139 -7 -286 -10 -325 l-6 -73 -284 0 -284 0 0 323 0 323 32 15
c74 32 59 112 -26 139 -74 24 -102 70 -74 123 24 46 27 46 353 47 l310 0 -3
-85z"/>
<path d="M1877 938 c-26 -20 -37 -63 -37 -142 0 -89 13 -130 46 -145 35 -16
47 -14 78 10 25 20 26 23 26 134 0 105 -2 116 -22 135 -25 23 -66 26 -91 8z"/>
<path d="M2191 931 c-26 -26 -34 -73 -29 -167 3 -69 6 -79 31 -100 34 -29 56
-30 91 -3 25 20 26 23 26 134 0 105 -2 116 -22 135 -28 25 -72 26 -97 1z"/>
<path d="M2511 931 c-24 -24 -35 -93 -28 -179 4 -56 9 -70 32 -89 14 -13 35
-23 45 -23 10 0 31 10 45 23 23 19 28 33 32 89 11 132 -15 198 -77 198 -16 0
-39 -9 -49 -19z"/>
<path d="M2832 930 c-20 -19 -22 -30 -22 -135 0 -111 1 -114 26 -134 35 -27
57 -26 91 3 25 21 28 31 31 100 5 94 -3 141 -29 167 -25 25 -69 24 -97 -1z"/>
<path d="M3152 930 c-20 -19 -22 -30 -22 -135 0 -111 1 -114 26 -134 15 -12
33 -21 40 -21 29 0 64 25 74 53 13 39 13 166 -1 206 -19 53 -77 68 -117 31z"/>
<path d="M3472 927 c-20 -21 -22 -34 -22 -134 0 -109 1 -112 26 -132 15 -12
33 -21 40 -21 29 0 64 25 74 53 15 45 13 183 -5 216 -24 47 -78 56 -113 18z"/>
<path d="M3792 927 c-20 -21 -22 -34 -22 -131 0 -100 2 -108 25 -131 27 -28
42 -30 79 -14 38 18 48 56 44 164 -3 87 -5 99 -27 116 -32 26 -73 24 -99 -4z"/>
<path d="M4112 927 c-20 -21 -22 -34 -22 -131 0 -100 2 -108 25 -131 27 -28
42 -30 79 -14 38 18 48 56 44 164 -3 87 -5 99 -27 116 -32 26 -73 24 -99 -4z"/>
</g>
</svg>
